Coordinates
version=1
nRows=5
nColumns=63
inDegrees=yes

Units are S.I. units (second, meters, Newtons, ...)
If the header above contains a line with 'inDegrees', this indicates whether rotational values are in degrees (yes) or radians (no).

endheader
time	pelvis_tilt	pelvis_list	pelvis_rotation	pelvis_tx	pelvis_ty	pelvis_tz	hip_flexion_r	hip_adduction_r	hip_rotation_r	knee_angle_r	knee_angle_r_beta	ankle_angle_r	subtalar_angle_r	mtp_angle_r	hip_flexion_l	hip_adduction_l	hip_rotation_l	knee_angle_l	knee_angle_l_beta	ankle_angle_l	subtalar_angle_l	mtp_angle_l	L5_S1_Flex_Ext	L5_S1_Lat_Bending	L5_S1_axial_rotation	L4_L5_Flex_Ext	L4_L5_Lat_Bending	L4_L5_axial_rotation	L3_L4_Flex_Ext	L3_L4_Lat_Bending	L3_L4_axial_rotation	L2_L3_Flex_Ext	L2_L3_Lat_Bending	L2_L3_axial_rotation	L1_L2_Flex_Ext	L1_L2_Lat_Bending	L1_L2_axial_rotation	L1_T12_Flex_Ext	L1_T12_Lat_Bending	L1_T12_axial_rotation	Abs_r3	Abs_r2	Abs_r1	Abs_t1	Abs_t2	neck_flexion	neck_bending	neck_rotation	arm_flex_r	arm_add_r	arm_rot_r	elbow_flex_r	pro_sup_r	wrist_flex_r	wrist_dev_r	arm_flex_l	arm_add_l	arm_rot_l	elbow_flex_l	pro_sup_l	wrist_flex_l	wrist_dev_l
      3.54237288	      2.00341089	      0.06064874	     85.90731087	      0.29682447	      0.69586750	      0.75387950	      3.86861129	      1.91399909	      3.15094916	      4.58018169	      0.07993925	     14.87810949	      2.05075730	      0.00000000	      2.79065269	     -6.12511461	     -8.30899216	      5.44201967	      0.09498116	     16.21393995	     12.47312264	      0.00000000	      0.04454032	      0.70717505	      3.31683131	      0.08271582	      0.94054281	      3.52413327	      0.07317529	      1.71942541	      3.52413327	      0.05090513	      1.71942541	      2.90222739	      0.04136014	      1.44207136	      2.69492544	      0.02545034	      1.09541415	      2.48762348	      0.31814703	      7.99970558	     18.44722069	      0.00000000	      0.00000000	     27.60604929	     -8.42278554	     -3.94235760	     14.44228337	    -11.16199276	    144.08813270	      3.79239886	      4.05394595	      0.62406686	     -1.72514455	     14.30493321	     -5.16998928	     -7.23142936	     63.98407983	     88.44652237	    -17.32829844	     -2.50907934
      3.55932203	      1.91762132	     -0.08153367	     85.63134568	      0.29707349	      0.69553707	      0.75381129	      4.06760439	      1.89098595	      3.76587526	      4.74394726	      0.08279750	     14.96289572	      1.38748700	      0.00000000	      2.70941751	     -5.99981707	     -7.84503973	      5.16574482	      0.09015926	     15.77459496	     11.51910004	      0.00000000	      0.04683418	      0.68943639	      3.41624764	      0.08697576	      0.91695039	      3.62976312	      0.07694387	      1.67629563	      3.62976312	      0.05352678	      1.67629563	      2.98921668	      0.04349022	      1.40589868	      2.77570121	      0.02676105	      1.06793696	      2.56218573	      0.33453186	      7.79904229	     19.00014449	      0.00000000	      0.00000000	     27.71129828	     -8.39056103	     -4.20001995	     15.16294916	    -11.26015880	    154.03595320	      2.65698482	      5.79645495	      1.41918163	     -1.12920094	     15.31243752	     -4.99528987	     -8.16044225	     65.90950896	     88.47781764	    -16.51207833	     -5.09133074
      3.57627119	      1.72447085	     -0.23402676	     85.38410020	      0.29734872	      0.69494455	      0.75391630	      4.32904795	      1.74767292	      3.95113262	      5.02409280	      0.08768696	     15.14545079	      1.18116147	      0.00000000	      2.68357855	     -5.78797776	     -7.80047190	      4.89023137	      0.08535064	     15.45517898	     11.04330740	      0.00000000	      0.05131019	      0.65347044	      3.50604793	      0.09528815	      0.86911568	      3.72517593	      0.08429750	      1.58884802	      3.72517593	      0.05864241	      1.58884802	      3.06779194	      0.04764664	      1.33255692	      2.84866395	      0.02931864	      1.01222571	      2.62953595	      0.36650353	      7.39218830	     19.49958679	      0.00000000	      0.00000000	     27.77996966	     -8.58759229	     -5.15146979	     16.05656012	    -11.21705991	    161.58074431	      1.93188788	     12.16736658	      1.63039914	     -1.50565620	     16.46326600	     -5.21986600	     -8.19683486	     67.73169895	     88.46576106	    -15.87079357	     -6.47721929
      3.59322034	      1.40205926	     -0.41189886	     85.31929111	      0.29737931	      0.69421138	      0.75420967	      4.62352414	      1.45570962	      4.00483400	      5.31746679	      0.09280730	     15.16916607	      0.82820083	      0.00000000	      2.77389165	     -5.43428485	     -7.63567846	      4.63724443	      0.08093518	     15.19272955	     10.55785137	      0.00000000	      0.05796158	      0.60154236	      3.52330281	      0.10764045	      0.80005134	      3.74350923	      0.09522508	      1.46259011	      3.74350923	      0.06624429	      1.46259011	      3.08288996	      0.05382312	      1.22666519	      2.86268353	      0.03311925	      0.93178912	      2.64247711	      0.41401377	      6.80476754	     19.59555323	      0.00000000	      0.00000000	     27.83674082	     -8.55479985	     -5.92964502	     17.06315001	    -10.93825657	    168.47962927	      1.48200095	     18.38799677	      1.10325282	     -2.24310241	     17.44969529	     -5.97363835	     -7.49084428	     69.77835422	     88.48480348	    -15.24813487	     -6.29850266
      3.61016949	      1.03852403	     -0.63203436	     85.52177829	      0.29708293	      0.69344501	      0.75472075	      4.92842950	      1.10450398	      3.88044878	      5.53840801	      0.09666346	     15.07155729	      0.34537671	      0.00000000	      3.01144979	     -5.02802036	     -7.21069068	      4.41937540	      0.07713265	     14.87514418	     10.04114938	      0.00000000	      0.07057461	      0.54363672	      3.47490720	      0.13106411	      0.72303684	      3.69208890	      0.11594703	      1.32179832	      3.69208890	      0.08065972	      1.32179832	      3.04054380	      0.06553558	      1.10858400	      2.82336210	      0.04032633	      0.84209328	      2.60618040	      0.50410738	      6.14972731	     19.32639139	      0.00000000	      0.00000000	     27.89174517	     -8.26586080	     -6.42339736	     18.02558158	    -10.57150326	    172.67456662	      1.23342362	     23.02778691	     -0.06650785	     -2.76553615	     18.22145820	     -7.07814777	     -6.13373404	     72.09750990	     88.58560343	    -14.60462703	     -4.20689447
